<svg width="352" height="352" viewBox="0 0 352 352" fill="none" xmlns="http://www.w3.org/2000/svg">
<rect width="352" height="352" fill="#F6815C"/>
<circle cx="176" cy="176" r="50" fill="white"/>
<path fill-rule="evenodd" clip-rule="evenodd" d="M157.479 145.454C156.839 145.705 155.775 146.581 155.114 147.399C153.918 148.878 153.913 148.997 154.073 170.112L154.208 187.932C154.225 190.174 154.738 192.385 155.711 194.405V194.405C158.656 200.521 164.878 205.251 171.781 206.621C181.22 208.494 191.485 203.263 195.75 194.405C197.058 191.688 198 189.429 198 185.552C198 181.675 197.071 179.741 195.63 176.704C193.517 172.25 188.37 167.492 183.898 165.858C182.134 165.213 178.766 164.496 176.412 164.263C168.991 163.529 165.533 159.984 165.533 153.109C165.533 148.911 164.894 147.333 162.653 146.003C160.73 144.861 159.356 144.716 157.479 145.454ZM174.882 175.687C181.843 177.392 185.95 179.791 185.915 185.552C185.898 188.444 184.181 191.747 181.759 193.545C179.91 194.918 178.379 195.092 175.731 195.092C172.233 195.092 171.551 194.918 169.702 193.545C166.291 191.013 165.559 188.718 165.546 180.513L165.533 173.444C167.193 174.012 174.882 175.687 174.882 175.687Z" fill="#F6815C"/>
</svg>
