<svg width="251" height="251" viewBox="0 0 251 251" fill="none" xmlns="http://www.w3.org/2000/svg">
<rect x="0.600098" y="0.0999756" width="250" height="250.9" fill="#F6815C"/>
<ellipse cx="125.6" cy="125.55" rx="35.5114" ry="35.6392" fill="white"/>
<path fill-rule="evenodd" clip-rule="evenodd" d="M112.446 103.777C111.992 103.957 111.235 104.581 110.766 105.163C109.917 106.218 109.913 106.303 110.027 121.353L110.123 134.057C110.135 135.654 110.499 137.229 111.19 138.669V138.669C113.282 143.028 117.701 146.4 122.603 147.376C129.307 148.711 136.598 144.982 139.627 138.669C140.556 136.732 141.225 135.122 141.225 132.359C141.225 129.595 140.565 128.217 139.542 126.052C138.041 122.877 134.386 119.485 131.209 118.321C129.957 117.861 127.564 117.35 125.893 117.184C120.622 116.661 118.166 114.134 118.166 109.234C118.166 106.241 117.712 105.117 116.121 104.169C114.755 103.355 113.779 103.251 112.446 103.777ZM124.806 125.327C129.75 126.542 132.666 128.253 132.642 132.359C132.63 134.42 131.41 136.774 129.69 138.056C128.377 139.034 127.289 139.159 125.409 139.159C122.924 139.159 122.44 139.034 121.127 138.056C118.705 136.251 118.185 134.615 118.175 128.767L118.166 123.728C119.345 124.133 124.806 125.327 124.806 125.327Z" fill="#F6815C"/>
</svg>
