<svg width="120" height="120" viewBox="0 0 120 120" fill="none" xmlns="http://www.w3.org/2000/svg">
<path d="M57.425 38.2502C56.9452 39.8497 54.7101 41.7658 50.0512 42.7223C45.6332 43.6295 39.9295 43.4357 34.3254 41.7549C28.9125 40.1314 24.0395 36.5739 20.6052 32.6515C18.8955 30.6988 17.5992 28.7194 16.7811 26.9384C16.3706 26.0445 16.1048 25.2546 15.9518 24.579C21.8777 22.7768 32.714 19.7346 42.4359 22.6505C47.9772 24.3125 52.1804 27.2232 54.7442 30.292C57.3734 33.4392 57.9958 36.3471 57.425 38.2502Z" fill="url(#paint0_linear_543_222)" stroke="#1A1A1A" stroke-width="5.625"/>
<path d="M39.3152 31.875C38.944 31.761 38.5507 31.9696 38.4367 32.3409C38.3228 32.7121 38.5314 33.1054 38.9026 33.2193L39.3152 31.875ZM47.2772 35.3126L47.528 34.6556L47.5208 34.653L47.2772 35.3126ZM51.1953 36.8081L51.4736 36.1624L51.4599 36.1565L51.446 36.1512L51.1953 36.8081ZM43.1294 33.781L43.3729 33.1214L43.3545 33.1146L43.3357 33.1089L43.1294 33.781ZM47.0265 35.9695L50.9446 37.465L51.446 36.1512L47.528 34.6557L47.0265 35.9695ZM50.917 37.4538L54.5005 38.9982L55.0571 37.7068L51.4736 36.1624L50.917 37.4538ZM38.9026 33.2193L42.9231 34.4532L43.3357 33.1089L39.3152 31.875L38.9026 33.2193ZM42.8858 34.4406L47.0337 35.9722L47.5208 34.653L43.3729 33.1214L42.8858 34.4406Z" fill="#1A1A1A"/>
<path d="M61.432 39.6936C60.656 39.212 59.6695 37.495 59.8915 33.8948C60.0983 30.54 61.353 26.4374 63.6795 22.689C67.5501 16.4527 74.2323 14.4797 80.0177 13.4751C80.0739 13.7644 80.1217 14.1032 80.1541 14.4969C80.2675 15.8748 80.1671 17.6232 79.8212 19.6028C79.1285 23.5674 77.514 28.1055 75.1668 31.8873C72.8749 35.5799 69.9557 38.0303 67.2827 39.2623C64.517 40.537 62.4772 40.3423 61.432 39.6936Z" fill="url(#paint1_linear_543_222)" stroke="#1A1A1A" stroke-width="5.625"/>
<path d="M69.8814 27.7268C69.9777 27.4865 69.861 27.2136 69.6207 27.1173C69.3804 27.021 69.1075 27.1377 69.0112 27.378L69.8814 27.7268ZM66.8704 32.8513L67.2706 33.0957L67.277 33.0845L66.8704 32.8513ZM65.3798 35.2919L65.7519 35.5771L65.7669 35.5574L65.7798 35.5363L65.3798 35.2919ZM68.3704 30.2366L68.777 30.4699L68.7934 30.4414L68.8056 30.411L68.3704 30.2366ZM66.4703 32.6069L64.9798 35.0476L65.7798 35.5363L67.2704 33.0956L66.4703 32.6069ZM65.0077 35.0068L63.378 37.1335L64.1221 37.7038L65.7519 35.5771L65.0077 35.0068ZM69.0112 27.378L67.9353 30.0622L68.8056 30.411L69.8814 27.7268L69.0112 27.378ZM67.9639 30.0033L66.4638 32.618L67.277 33.0845L68.777 30.4699L67.9639 30.0033Z" fill="#1A1A1A"/>
<path d="M108.516 74.8828C108.516 95.887 91.2844 112.969 69.9609 112.969C48.6375 112.969 31.4062 95.887 31.4062 74.8828C31.4062 53.8787 48.6375 36.7969 69.9609 36.7969C91.2844 36.7969 108.516 53.8787 108.516 74.8828Z" fill="url(#paint2_linear_543_222)" stroke="#1A1A1A" stroke-width="5.625"/>
<path d="M61.0368 40.2984L65.1222 37.1732C65.4587 36.9159 65.4484 36.4058 65.1019 36.1621C64.9703 36.0695 64.8081 36.0311 64.6489 36.0548L61.8446 36.4718C61.0946 36.5834 60.3748 36.8455 59.7286 37.2423L55.33 39.9434C54.9434 40.1808 54.5869 40.4641 54.2683 40.7872L52.1568 42.9283C51.4618 43.6332 50.9651 44.5089 50.7168 45.4671L50.4668 46.4321L50.0231 48.6126C49.9604 48.9208 49.9237 49.2338 49.9133 49.5481L49.8179 52.4297L50.1388 55.6013L50.6102 58.1824C50.684 58.5861 50.8017 58.9806 50.9613 59.3587L51.7026 61.1153C51.8378 61.4357 52.0024 61.7429 52.1944 62.0329L52.9208 63.1305C52.946 63.1686 52.9748 63.2042 53.0066 63.2369L53.7409 63.9907C54.071 64.3295 54.6356 64.0066 54.5109 63.5503L54.1274 61.7612C54.0332 61.3214 53.9707 60.8755 53.9405 60.4269L53.7728 57.9371C53.7538 57.6555 53.7561 57.3728 53.7795 57.0916L53.9751 54.7456L54.373 51.9441C54.4279 51.5577 54.5228 51.1781 54.6563 50.8113L55.8076 47.648C55.9269 47.3202 56.0765 47.0042 56.2543 46.7041L57.6956 44.2718L60.2725 41.0467C60.4959 40.7671 60.7525 40.5158 61.0368 40.2984Z" fill="#1A1A1A" stroke="#1A1A1A" stroke-width="0.9375"/>
<defs>
<linearGradient id="paint0_linear_543_222" x1="16.7578" y1="23.334" x2="54.961" y2="39.2715" gradientUnits="userSpaceOnUse">
<stop stop-color="#6BB00E"/>
<stop offset="0.0001" stop-color="#99CC33"/>
<stop offset="1" stop-color="#6AAF0C"/>
</linearGradient>
<linearGradient id="paint1_linear_543_222" x1="80.3722" y1="12.984" x2="60.8278" y2="38.2025" gradientUnits="userSpaceOnUse">
<stop stop-color="#6BB00E"/>
<stop offset="0.0001" stop-color="#99CC33"/>
<stop offset="1" stop-color="#6AAF0C"/>
</linearGradient>
<linearGradient id="paint2_linear_543_222" x1="95.9766" y1="45.1172" x2="56.4844" y2="113.203" gradientUnits="userSpaceOnUse">
<stop stop-color="#F798A9"/>
<stop offset="1" stop-color="#EA4D57"/>
</linearGradient>
</defs>
</svg>
