<svg width="250" height="251" viewBox="0 0 250 251" fill="none" xmlns="http://www.w3.org/2000/svg">
<path d="M80 128.059C80 100.445 102.386 77.879 130 77.879V77.879C157.614 77.879 180 100.445 180 128.059V128.059C180 155.673 157.614 178.239 130 178.239V178.239C102.386 178.239 80 155.673 80 128.059V128.059Z" fill="#FF5657"/>
<path d="M155.81 112.313C147.436 97.7559 128.841 92.7332 114.31 101.153V101.153C99.7796 109.572 94.8162 128.245 103.19 142.802V142.802C111.565 157.359 130.16 162.381 144.69 153.962V153.962C159.221 145.542 164.184 126.869 155.81 112.313V112.313Z" fill="#FF5657"/>
<rect y="0.0999756" width="250" height="250.9" fill="#FF5657"/>
<path d="M125 154.21C124.083 154.21 123.195 154.091 122.455 153.824C111.151 149.933 93.188 136.123 93.188 115.72C93.188 105.325 101.563 96.8901 111.861 96.8901C116.862 96.8901 121.538 98.8503 125 102.355C128.463 98.8503 133.138 96.8901 138.139 96.8901C148.438 96.8901 156.813 105.354 156.813 115.72C156.813 136.153 138.85 149.933 127.545 153.824C126.805 154.091 125.918 154.21 125 154.21ZM111.861 101.345C104.019 101.345 97.6269 107.79 97.6269 115.72C97.6269 136.004 117.069 147.29 123.905 149.636C124.438 149.814 125.592 149.814 126.125 149.636C132.931 147.29 152.403 136.034 152.403 115.72C152.403 107.79 146.011 101.345 138.169 101.345C133.671 101.345 129.498 103.454 126.805 107.107C125.977 108.235 124.083 108.235 123.254 107.107C120.502 103.424 116.359 101.345 111.861 101.345Z" fill="white"/>
</svg>
