<svg width="352" height="352" viewBox="0 0 352 352" fill="none" xmlns="http://www.w3.org/2000/svg">
<path d="M112.64 179.52C112.64 140.639 144.159 109.12 183.04 109.12V109.12C221.921 109.12 253.44 140.639 253.44 179.52V179.52C253.44 218.401 221.921 249.92 183.04 249.92V249.92C144.159 249.92 112.64 218.401 112.64 179.52V179.52Z" fill="#FF5657"/>
<path d="M219.381 157.429C207.569 136.97 181.408 129.96 160.949 141.772V141.772C140.49 153.584 133.48 179.745 145.292 200.204V200.204C157.104 220.663 183.265 227.673 203.724 215.861V215.861C224.183 204.049 231.193 177.888 219.381 157.429V157.429Z" fill="#FF5657"/>
<rect width="352" height="352" fill="#FF5657"/>
<path d="M176 216.208C174.708 216.208 173.458 216.042 172.417 215.667C156.5 210.208 131.208 190.833 131.208 162.208C131.208 147.625 143 135.792 157.5 135.792C164.542 135.792 171.125 138.542 176 143.458C180.875 138.542 187.458 135.792 194.5 135.792C209 135.792 220.792 147.667 220.792 162.208C220.792 190.875 195.5 210.208 179.583 215.667C178.542 216.042 177.292 216.208 176 216.208ZM157.5 142.042C146.458 142.042 137.458 151.083 137.458 162.208C137.458 190.667 164.833 206.5 174.458 209.792C175.208 210.042 176.833 210.042 177.583 209.792C187.167 206.5 214.583 190.708 214.583 162.208C214.583 151.083 205.583 142.042 194.542 142.042C188.208 142.042 182.333 145 178.542 150.125C177.375 151.708 174.708 151.708 173.542 150.125C169.667 144.958 163.833 142.042 157.5 142.042Z" fill="white"/>
</svg>
