<svg width="352" height="352" viewBox="0 0 352 352" fill="none" xmlns="http://www.w3.org/2000/svg">
<rect width="352" height="352" fill="#FFFF00"/>
<circle cx="176" cy="176" r="50" fill="white"/>
<g style="mix-blend-mode:multiply" opacity="0.52">
<path d="M176.424 211C176.18 211 175.939 210.951 175.714 210.858C175.489 210.765 175.284 210.628 175.112 210.456C174.685 210.022 164.588 199.802 160.805 195.258C156.33 189.916 151 181.489 151 171.762C151 154.048 163.927 143.5 176.418 143.5C188.335 143.5 201 153.392 201 171.757C201 180.202 197.211 187.746 194.036 192.581C190.012 198.713 178.195 210.035 177.692 210.511C177.347 210.828 176.894 211.003 176.424 211ZM176.22 153.202C172.421 153.184 168.762 154.631 166.007 157.241C163.952 159.189 162.502 161.687 161.831 164.435C161.161 167.184 161.298 170.067 162.225 172.74C163.153 175.413 164.833 177.763 167.063 179.508C169.293 181.254 171.98 182.321 174.803 182.583C175.104 182.61 175.394 182.712 175.646 182.879C175.898 183.046 176.104 183.273 176.245 183.54C176.39 183.275 176.598 183.049 176.85 182.882C177.103 182.715 177.392 182.612 177.694 182.582C181.48 182.235 184.985 180.441 187.477 177.575C189.969 174.708 191.257 170.991 191.07 167.199C190.883 163.407 189.236 159.834 186.474 157.224C183.712 154.616 180.047 153.174 176.245 153.201H176.219L176.22 153.202Z" fill="#A6A6A6"/>
</g>
<path d="M173.925 211C173.681 211 173.439 210.95 173.214 210.853C172.989 210.756 172.785 210.614 172.612 210.436C172.184 209.987 162.088 199.388 158.305 194.675C153.83 189.135 148.5 180.396 148.5 170.31C148.5 151.939 161.426 141 173.918 141C185.834 141 198.5 151.259 198.5 170.302C198.5 179.061 194.711 186.884 191.536 191.898C187.512 198.258 175.696 209.999 175.193 210.493C174.847 210.822 174.394 211.003 173.925 211ZM173.72 151.061C169.921 151.043 166.262 152.543 163.507 155.25C161.452 157.27 160.003 159.86 159.332 162.71C158.661 165.561 158.798 168.55 159.725 171.322C160.653 174.094 162.332 176.531 164.563 178.342C166.793 180.152 169.48 181.259 172.302 181.531C172.603 181.558 172.894 181.664 173.146 181.837C173.398 182.011 173.604 182.247 173.745 182.525C173.89 182.249 174.098 182.015 174.35 181.842C174.602 181.668 174.892 181.562 175.193 181.531C178.979 181.171 182.484 179.31 184.976 176.337C187.469 173.364 188.756 169.509 188.569 165.577C188.382 161.645 186.736 157.939 183.973 155.233C181.212 152.529 177.547 151.034 173.745 151.061H173.72Z" fill="#E6E6E6"/>
<g style="mix-blend-mode:multiply" opacity="0.52">
<path d="M174.747 213.493C169.489 213.545 164.234 213.154 159.019 212.322C153.246 211.285 151 209.869 151 207.245C151 204.62 153.246 203.206 159.019 202.175C164.234 201.343 169.488 200.952 174.747 201.005C180.007 200.966 185.264 201.37 190.48 202.215C196.247 203.245 198.5 204.667 198.5 207.284C198.5 209.9 196.247 211.323 190.48 212.361C185.263 213.18 180.005 213.558 174.747 213.493Z" fill="#A6A6A6"/>
</g>
<path d="M174.747 210.995C169.489 211.037 164.235 210.723 159.02 210.057C153.248 209.228 151 208.095 151 205.996C151 203.896 153.248 202.764 159.02 201.94C164.235 201.275 169.489 200.962 174.747 201.004C180.008 200.972 185.265 201.297 190.481 201.972C196.247 202.796 198.5 203.934 198.5 206.027C198.5 208.12 196.247 209.258 190.481 210.089C185.264 210.743 180.006 211.048 174.747 210.995Z" fill="#E6E6E6"/>
<path d="M174.75 210.998C186.487 210.998 196 209.319 196 207.248C196 205.178 186.487 203.5 174.75 203.5C163.014 203.5 153.5 205.179 153.5 207.248C153.5 209.32 163.014 210.998 174.75 210.998Z" fill="#1A1A1A"/>
<path d="M175.182 143.5C162.945 143.5 151 153.814 151 170.553C151 179.662 155.964 187.88 160.623 193.439C164.519 198.086 175.259 208.5 175.259 208.5C175.259 208.5 187.615 197.022 191.672 190.849C195.2 185.48 198.5 178.34 198.5 170.551C198.5 153.815 187.426 143.5 175.182 143.5ZM176.642 183.53V192.882L176.591 192.958C176.371 193.277 176.054 193.518 175.687 193.645C175.32 193.771 174.922 193.777 174.552 193.662C174.181 193.546 173.857 193.315 173.628 193.003C173.399 192.69 173.276 192.313 173.278 191.926L173.323 183.531C168.942 183.106 164.893 181.016 162.016 177.694C159.138 174.372 157.652 170.074 157.865 165.689C158.078 161.305 159.975 157.17 163.162 154.14C166.348 151.113 170.58 149.424 174.982 149.424C179.384 149.424 183.616 151.113 186.802 154.14C189.178 156.4 190.854 159.292 191.63 162.472C192.406 165.653 192.25 168.989 191.18 172.084C190.111 175.179 188.172 177.903 185.595 179.932C183.018 181.961 179.911 183.209 176.642 183.53Z" fill="#FFFF00"/>
<path d="M175.182 143.5C162.945 143.5 151 153.814 151 170.553C151 179.662 155.964 187.88 160.623 193.439C164.519 198.086 175.259 208.5 175.259 208.5C175.259 208.5 187.615 197.022 191.672 190.849C195.2 185.48 198.5 178.34 198.5 170.551C198.5 153.815 187.426 143.5 175.182 143.5ZM176.642 183.53V192.882L176.591 192.958C176.372 193.278 176.055 193.52 175.688 193.647C175.32 193.774 174.922 193.78 174.551 193.665C174.18 193.549 173.856 193.318 173.626 193.004C173.397 192.691 173.275 192.313 173.278 191.926L173.323 183.531C168.942 183.106 164.893 181.016 162.016 177.694C159.138 174.372 157.652 170.074 157.865 165.689C158.078 161.305 159.975 157.17 163.162 154.14C166.348 151.113 170.58 149.424 174.982 149.424C179.384 149.424 183.616 151.113 186.802 154.14C189.178 156.4 190.854 159.292 191.63 162.472C192.406 165.653 192.25 168.989 191.18 172.084C190.111 175.179 188.172 177.903 185.595 179.932C183.018 181.961 179.911 183.209 176.642 183.53Z" stroke="#1A1A1A" stroke-width="0.3" stroke-miterlimit="10"/>
<path d="M173.5 181C181.785 181 188.5 174.285 188.5 165.999C188.5 157.715 181.785 151 173.5 151C165.217 151 158.5 157.715 158.5 165.999C158.5 174.285 165.217 181 173.5 181Z" fill="white" stroke="#1A1A1A" stroke-width="0.3" stroke-miterlimit="10"/>
<path d="M176 156C176 156 186.041 156 186 163.5" stroke="#1A1A1A" stroke-width="0.3" stroke-miterlimit="10"/>
</svg>
