<svg width="251" height="251" viewBox="0 0 251 251" fill="none" xmlns="http://www.w3.org/2000/svg">
<rect x="0.700195" y="0.0999756" width="250" height="250.9" fill="#FFFF00"/>
<ellipse cx="125.7" cy="125.55" rx="35.5114" ry="35.6392" fill="white"/>
<g style="mix-blend-mode:multiply" opacity="0.52">
<path d="M126.001 150.497C125.828 150.497 125.657 150.463 125.497 150.396C125.337 150.33 125.192 150.232 125.069 150.109C124.766 149.8 117.595 142.515 114.908 139.277C111.73 135.469 107.944 129.462 107.944 122.529C107.944 109.903 117.125 102.384 125.997 102.384C134.461 102.384 143.456 109.436 143.456 122.526C143.456 128.545 140.764 133.922 138.51 137.369C135.652 141.74 127.259 149.81 126.902 150.149C126.657 150.375 126.335 150.499 126.001 150.497ZM125.857 109.3C123.158 109.287 120.56 110.318 118.603 112.179C117.143 113.568 116.113 115.348 115.637 117.307C115.161 119.266 115.258 121.321 115.917 123.226C116.576 125.132 117.769 126.806 119.353 128.051C120.937 129.295 122.845 130.056 124.85 130.242C125.064 130.262 125.269 130.334 125.448 130.453C125.627 130.572 125.774 130.734 125.874 130.925C125.977 130.735 126.124 130.574 126.304 130.455C126.483 130.336 126.689 130.263 126.903 130.242C129.592 129.994 132.081 128.716 133.851 126.673C135.621 124.629 136.536 121.979 136.403 119.277C136.27 116.574 135.101 114.027 133.139 112.167C131.177 110.308 128.574 109.28 125.874 109.299H125.856L125.857 109.3Z" fill="#A6A6A6"/>
</g>
<path d="M124.226 150.497C124.053 150.497 123.881 150.461 123.721 150.392C123.561 150.323 123.416 150.222 123.294 150.095C122.99 149.776 115.819 142.221 113.133 138.861C109.954 134.912 106.169 128.683 106.169 121.494C106.169 108.4 115.349 100.602 124.221 100.602C132.684 100.602 141.68 107.915 141.68 121.489C141.68 127.732 138.989 133.308 136.734 136.882C133.876 141.415 125.484 149.784 125.127 150.136C124.881 150.37 124.559 150.5 124.226 150.497ZM124.08 107.774C121.382 107.761 118.784 108.83 116.827 110.76C115.368 112.2 114.338 114.046 113.862 116.077C113.385 118.109 113.482 120.24 114.141 122.216C114.8 124.192 115.993 125.929 117.577 127.219C119.161 128.509 121.069 129.299 123.073 129.492C123.288 129.512 123.494 129.587 123.673 129.711C123.852 129.835 123.998 130.003 124.099 130.201C124.201 130.004 124.349 129.837 124.528 129.714C124.707 129.59 124.913 129.514 125.127 129.492C127.816 129.236 130.305 127.909 132.075 125.79C133.845 123.671 134.759 120.923 134.627 118.12C134.494 115.318 133.325 112.676 131.362 110.747C129.401 108.82 126.799 107.754 124.099 107.774H124.08Z" fill="#E6E6E6"/>
<g style="mix-blend-mode:multiply" opacity="0.52">
<path d="M124.81 152.274C121.075 152.312 117.343 152.033 113.64 151.44C109.54 150.701 107.944 149.691 107.944 147.821C107.944 145.95 109.54 144.942 113.64 144.207C117.343 143.614 121.075 143.336 124.81 143.373C128.546 143.345 132.279 143.633 135.984 144.235C140.08 144.97 141.68 145.984 141.68 147.849C141.68 149.713 140.08 150.728 135.984 151.468C132.279 152.051 128.545 152.32 124.81 152.274Z" fill="#A6A6A6"/>
</g>
<path d="M124.81 150.494C121.076 150.524 117.344 150.3 113.641 149.826C109.541 149.234 107.944 148.427 107.944 146.93C107.944 145.434 109.541 144.627 113.641 144.04C117.344 143.565 121.076 143.342 124.81 143.372C128.546 143.35 132.28 143.581 135.985 144.062C140.08 144.65 141.68 145.461 141.68 146.953C141.68 148.445 140.08 149.256 135.985 149.848C132.279 150.314 128.546 150.531 124.81 150.494Z" fill="#E6E6E6"/>
<path d="M124.812 150.496C133.148 150.496 139.905 149.299 139.905 147.823C139.905 146.348 133.148 145.151 124.812 145.151C116.477 145.151 109.72 146.349 109.72 147.823C109.72 149.3 116.477 150.496 124.812 150.496Z" fill="#1A1A1A"/>
<path d="M125.119 102.384C116.428 102.384 107.944 109.736 107.944 121.667C107.944 128.16 111.47 134.018 114.779 137.98C117.546 141.293 125.174 148.715 125.174 148.715C125.174 148.715 133.949 140.534 136.831 136.134C139.337 132.307 141.68 127.218 141.68 121.666C141.68 109.737 133.815 102.384 125.119 102.384ZM126.156 130.917V137.583L126.12 137.638C125.964 137.865 125.739 138.037 125.478 138.127C125.217 138.217 124.935 138.221 124.671 138.139C124.408 138.057 124.178 137.892 124.015 137.669C123.852 137.446 123.765 137.177 123.767 136.901L123.799 130.918C120.687 130.615 117.811 129.125 115.768 126.758C113.724 124.39 112.668 121.326 112.82 118.2C112.971 115.075 114.318 112.128 116.582 109.969C118.845 107.811 121.851 106.607 124.977 106.607C128.103 106.607 131.109 107.811 133.372 109.969C135.06 111.579 136.25 113.64 136.801 115.908C137.352 118.175 137.241 120.553 136.482 122.759C135.722 124.965 134.345 126.906 132.515 128.352C130.684 129.799 128.478 130.688 126.156 130.917Z" fill="#FFFF00"/>
<path d="M125.119 102.384C116.428 102.384 107.944 109.736 107.944 121.667C107.944 128.16 111.47 134.018 114.779 137.98C117.546 141.293 125.174 148.715 125.174 148.715C125.174 148.715 133.949 140.534 136.831 136.134C139.337 132.307 141.68 127.218 141.68 121.666C141.68 109.737 133.815 102.384 125.119 102.384ZM126.156 130.917V137.583L126.12 137.638C125.964 137.866 125.739 138.038 125.478 138.128C125.217 138.219 124.934 138.224 124.671 138.141C124.407 138.059 124.177 137.894 124.014 137.67C123.851 137.447 123.765 137.178 123.767 136.901L123.799 130.918C120.687 130.615 117.811 129.125 115.768 126.758C113.724 124.39 112.668 121.326 112.82 118.2C112.971 115.075 114.318 112.128 116.582 109.969C118.845 107.811 121.851 106.607 124.977 106.607C128.103 106.607 131.109 107.811 133.372 109.969C135.06 111.579 136.25 113.64 136.801 115.908C137.352 118.175 137.241 120.553 136.482 122.759C135.722 124.965 134.345 126.906 132.515 128.352C130.684 129.799 128.478 130.688 126.156 130.917Z" stroke="#1A1A1A" stroke-width="0.3" stroke-miterlimit="10"/>
<path d="M123.925 129.114C129.809 129.114 134.578 124.327 134.578 118.422C134.578 112.517 129.809 107.73 123.925 107.73C118.042 107.73 113.271 112.517 113.271 118.422C113.271 124.327 118.042 129.114 123.925 129.114Z" fill="white" stroke="#1A1A1A" stroke-width="0.3" stroke-miterlimit="10"/>
<path d="M125.7 111.294C125.7 111.294 132.831 111.294 132.802 116.64" stroke="#1A1A1A" stroke-width="0.3" stroke-miterlimit="10"/>
</svg>
